<svg data-v-0dd9719b="" version="1.0" xmlns="http://www.w3.org/2000/svg" xmlns:xlink="http://www.w3.org/1999/xlink" width="100%" height="100%" viewBox="0 0 340.000000 250.000000" preserveAspectRatio="xMidYMid meet" color-interpolation-filters="sRGB" style="margin: auto;"> <rect data-v-0dd9719b="" x="0" y="0" width="100%" height="100%" fill="#fff" fill-opacity="1" class="background"></rect> <rect data-v-0dd9719b="" x="0" y="0" width="100%" height="100%" fill="url(#watermark)" fill-opacity="1" class="watermarklayer"></rect> <g data-v-0dd9719b="" fill="#66952e" class="icon-text-wrapper icon-svg-group iconsvg" transform="translate(74.27999877929688,95)"><g class="iconsvg-imagesvg" transform="translate(0,0)"><g><rect fill="#66952e" fill-opacity="0" stroke-width="2" x="0" y="0" width="60" height="60" class="image-rect"></rect> <svg x="0" y="0" width="60" height="60" filtersec="colorsb6334043734" class="image-svg-svg primary" style="overflow: visible;"><svg viewBox="0 0 420.3269958496094 420.3269958496094" xmlns="http://www.w3.org/2000/svg"><path fill="none" pointer-events="none" d="M0 0h420.327v420.327H0z"></path><path class="st0" d="M274.319 170.884c-29.3.8-57.7 2.9-85 6.3-64.4 8-124.2 23.1-180 45.6v185.4h228.6c35.1-77.3 47.4-157.4 36.4-237.3z" fill="#66952e"></path><path class="st1" d="M269.119 140.984c-5.3-25.4-13-50.8-23.1-75.9-7.7-19.3-16.8-38.3-27.1-56.9H9.319v182.4c54.6-20.9 113.8-35.4 176.3-43.1 26.9-3.4 54.8-5.5 83.5-6.5z" fill="#8dc63f"></path><path class="st0" d="M306.219 268.484c-4.4 47.3-16.3 94.1-35.5 139.7h138.7v-232.4c-36.3-3.4-71.2-5.1-104.9-5.2 4.1 32.5 4.7 65.2 1.7 97.9z" fill="#66952e"></path><path class="st1" d="M253.019 8.184c7.8 15.1 14.7 30.3 20.9 45.7 11.4 28.6 20 57.5 25.7 86.5 34.3-.1 69.6 1.4 106 4.5 1.3.1 2.5.2 3.8.3v-137h-156.4z" fill="#8dc63f"></path></svg></svg> <!----></g></g> <g transform="translate(67,8.400001525878906)"><g data-gra="path-name" fill-rule="" class="tp-name iconsvg-namesvg"><g transform="scale(1)"><g><path d="M12.18-42L4.08-42 4.08 0 12.18 0 12.18-11.82 18.36-18.12 32.7 0 43.32 0 24.06-23.64 42.42-42 31.8-42 12.18-21.54ZM47.7 0L55.8 0 55.8-42 47.7-42ZM64.02 0L72.12 0 72.12-42 64.02-42ZM80.34 0L88.44 0 88.44-42 80.34-42ZM128.52-28.2C128.52-37.62 121.86-42.6 111.12-42.6 101.46-42.6 94.98-37.8 94.98-31.32 94.98-16.02 120.42-21.54 120.42-11.64 120.42-8.22 116.88-6 111.84-6 106.02-6 102.6-9 102.6-13.86L94.38-13.86C94.38-3.9 101.4 0.6 112.02 0.6 121.74 0.6 128.52-4.26 128.52-11.64 128.52-26.88 102.84-22.26 102.84-31.2 102.84-34.8 107.22-36.06 111.18-36.06 116.64-36.06 120.42-33 120.42-28.2Z" transform="translate(-4.079999923706055, 42.599998474121094)"></path></g> <!----> <!----> <!----> <!----> <!----> <!----> <!----></g></g> <!----></g></g><defs v-gra="od"></defs></svg>