<svg data-v-0dd9719b="" version="1.0" xmlns="http://www.w3.org/2000/svg" xmlns:xlink="http://www.w3.org/1999/xlink" width="100%" height="100%" viewBox="0 0 340.000000 250.000000" preserveAspectRatio="xMidYMid meet" color-interpolation-filters="sRGB" style="margin: auto;"> <rect data-v-0dd9719b="" x="0" y="0" width="100%" height="100%" fill="#fff" fill-opacity="1" class="background"></rect> <rect data-v-0dd9719b="" x="0" y="0" width="100%" height="100%" fill="url(#watermark)" fill-opacity="1" class="watermarklayer"></rect> <g data-v-0dd9719b="" fill="#c4d02e" class="icon-text-wrapper icon-svg-group iconsvg" transform="translate(48.57000732421875,78.3407974243164)"><g class="iconsvg-imagesvg" transform="translate(0,0)"><g><rect fill="#c4d02e" fill-opacity="0" stroke-width="2" x="0" y="0" width="60" height="93.3184023889511" class="image-rect"></rect> <svg x="0" y="0" width="60" height="93.3184023889511" filtersec="colorsb612042682" class="image-svg-svg primary" style="overflow: visible;"><svg xmlns="http://www.w3.org/2000/svg" viewBox="0 0 119.58999633789062 186"><g><g fill-rule="evenodd"><path d="M0 84.38h40.17a44.34 44.34 0 0 0 44.2-44.21A40.28 40.28 0 0 0 44.21 0h-2A42.31 42.31 0 0 0 0 42.19v42.19zm32.91-32.91v-9.28a9.39 9.39 0 0 1 9.28-9.28h2a7.36 7.36 0 0 1 7.26 7.26 11.42 11.42 0 0 1-11.3 11.3z" fill="#c4d02e"></path><path d="M0 66.36h.09L.24 38s8 18.24 23.18 24.24a68.14 68.14 0 0 0 19.38 4.12h14.9A62.84 62.84 0 0 1 119.59 129a57.1 57.1 0 0 1-56.93 57H59.8A60 60 0 0 1 0 126.16v-59.8zm32.91 32v27.78a27.05 27.05 0 0 0 26.89 26.91h2.86a24.19 24.19 0 0 0 24-24 30 30 0 0 0-28.82-29.77H41.53l-1.27-.1q-3.67-.29-7.35-.8z" fill="#5ea646"></path></g></g></svg></svg> <!----></g></g> <g transform="translate(67,18.72795295715332)"><g data-gra="path-name" fill-rule="" class="tp-name iconsvg-namesvg" transform="translate(0,0)"><g transform="scale(1)"><g><path d="M13-24.03L13-34.83 17.95-34.83 17.95 4Q17.95 4.27 17.75 4.48 17.55 4.68 17.28 4.68L17.28 4.68 13 4.68 13-5.08Q8.91-1.89 2.07 1.35L2.07 1.35 2.07-3.6Q5.58-5.44 8.19-6.88 10.8-8.32 13-9.81L13-9.81 13-21.11 3.1-21.11 3.1-24.03 13-24.03ZM39.55-9.36L42.93-9.36 42.48 0.45Q42.39 2.29 41.45 3.15 40.5 4 38.48 3.92L38.48 3.92 29.11 3.92Q24.93 3.92 24.93-0.27L24.93-0.27 24.93-34.83 29.88-34.83 29.88-20.16Q32.22-21.78 34.27-24.05 36.31-26.32 37.48-29.07L37.48-29.07 42.88-29.07Q40.81-24.7 37.39-21.42 33.98-18.13 29.88-16.65L29.88-16.65 29.88-0.45Q29.88 1.35 31.68 1.35L31.68 1.35 36.85 1.35Q38.34 1.35 38.43-0.22L38.43-0.22 38.88-8.69Q38.88-8.96 39.08-9.16 39.28-9.36 39.55-9.36L39.55-9.36ZM87.3-29.07Q87.3-28.8 87.1-28.6 86.89-28.39 86.63-28.39L86.63-28.39 47.74-28.39 47.74-31.32 64.84-31.32Q63.09-33.93 61.02-36.23L61.02-36.23 66.42-36.23Q67.91-34.34 69.34-31.32L69.34-31.32 87.3-31.32 87.3-29.07ZM78.07-11.34L70.29-11.34 70.29-0.77Q70.29 3.96 65.56 3.96L65.56 3.96 57.91 3.96 57.91 1.03 63.77 1.03Q65.34 1.03 65.34-0.54L65.34-0.54 65.34-11.34 52.11-11.34 52.11-24.84 82.8-24.84 82.8-16.06Q82.8-11.34 78.07-11.34L78.07-11.34ZM57.06-21.91L57.06-14.26 76.28-14.26Q77.85-14.26 77.85-15.84L77.85-15.84 77.85-21.91 57.06-21.91ZM55.3-8.82L60.25-8.82Q59.22-6.25 57.15-3.73 55.08-1.21 52.47 0.65 49.86 2.52 47.34 3.19L47.34 3.19 47.34 0.04Q49.77-1.13 51.52-3.24 53.28-5.35 55.3-8.82L55.3-8.82ZM79.65-8.82Q81.67-5.35 83.43-3.24 85.19-1.13 87.61 0.04L87.61 0.04 87.61 3.19Q85.09 2.52 82.48 0.65 79.88-1.21 77.81-3.73 75.73-6.25 74.7-8.82L74.7-8.82 79.65-8.82ZM104.67-2.97Q105.84-3.78 107.1-5.35L107.1-5.35 108-6.39 108-2.79Q107.23-1.26 106.29 0.11 105.34 1.48 104.67 1.98L104.67 1.98 100.17 1.98 100.17-15.25 99.22-15.25 99.22-10.35Q99.22-5.49 98.73-2.9 98.23-0.32 96.73 1.26 95.22 2.83 92.07 3.96L92.07 3.96 92.07 1.03Q93.15-0.04 93.71-1.26 94.28-2.48 94.5-4.63 94.72-6.79 94.72-10.75L94.72-10.75 94.72-15.25 92.07-15.25 92.07-18.18 97.25-18.18 97.25-35.82 101.75-35.82 101.75-18.18 107.59-18.18 107.59-15.93Q107.59-15.66 107.39-15.46 107.19-15.25 106.92-15.25L106.92-15.25 104.67-15.25 104.67-2.97ZM115.16-19.71L115.16-21.6 107.82-18.63 107.82-22.68 115.16-25.15 115.16-26.14 112.45-26.14Q111.24-28.35 107.82-31.63L107.82-31.63 112.72-31.63Q113.94-29.74 115.16-26.73L115.16-26.73 115.16-32.35 107.95-32.35 107.95-35.28 119.66-35.28 119.66-20.38Q119.66-20.11 119.45-19.91 119.25-19.71 118.98-19.71L118.98-19.71 115.16-19.71ZM124.88-31.63Q126-29.88 126.94-27.58L126.94-27.58 126.94-32.35 120.24-32.35 120.24-35.28 131.44-35.28 131.44-19.75Q131.44-19.48 131.24-19.28 131.04-19.08 130.77-19.08L130.77-19.08 126.94-19.08 126.94-22.09 120.38-20.52 120.38-24.57 126.94-25.7 126.94-26.14 124.6-26.14Q123.39-28.35 119.97-31.63L119.97-31.63 124.88-31.63ZM96.7-19.75Q93.69-21.51 92.88-24.88 92.07-28.26 92.07-31.95L92.07-31.95 96.12-31.95 96.08-28.48Q96.08-24.25 96.7-23.13L96.7-23.13 96.7-19.75ZM107.28-31.95Q107.28-30.15 106.83-27.56 106.38-24.97 105.25-22.7 104.13-20.43 102.28-19.75L102.28-19.75 102.28-23.13Q103.32-24.93 103.32-28.93L103.32-28.93 103.28-30.96Q103.23-31.36 103.23-31.95L103.23-31.95 107.28-31.95ZM124.11-0.81L132.93-0.81 132.93 1.44Q132.93 1.71 132.73 1.91 132.53 2.11 132.25 2.11L132.25 2.11 113.94 2.11 113.94 4Q113.94 4.27 113.74 4.48 113.53 4.68 113.27 4.68L113.27 4.68 108.99 4.68 108.99-8.96Q107.41-7.74 105.8-6.97L105.8-6.97 105.8-10.35Q107.91-12.6 108.92-14.78 109.94-16.96 110.3-19.44L110.3-19.44 115.25-19.44Q115.2-18.45 114.84-17.23L114.84-17.23 119.61-17.23 117.63-19.39 122.58-19.39 124.2-17.23 131.99-17.23 131.99-14.98Q131.99-14.71 131.78-14.51 131.58-14.31 131.31-14.31L131.31-14.31 124.11-14.31 124.11-11.88 131.18-11.88 131.18-9.63Q131.18-9.36 130.97-9.16 130.77-8.96 130.5-8.96L130.5-8.96 124.11-8.96 124.11-6.43 131.22-6.43 131.22-4.18Q131.22-3.92 131.02-3.71 130.81-3.51 130.55-3.51L130.55-3.51 124.11-3.51 124.11-0.81ZM119.16-11.88L119.16-14.31 113.94-14.31 113.94-11.88 119.16-11.88ZM119.16-6.43L119.16-8.96 113.94-8.96 113.94-6.43 119.16-6.43ZM113.94-3.51L113.94-0.81 119.16-0.81 119.16-3.51 113.94-3.51ZM149.99-35.55Q149.13-29.11 146.7-24.75L146.7-24.75 146.7 4Q146.7 4.27 146.5 4.48 146.29 4.68 146.03 4.68L146.03 4.68 141.75 4.68 141.75-18.95Q139.77-17.37 137.07-16.11L137.07-16.11 137.07-19.48Q140-22 142.2-26.17 144.41-30.33 145.03-35.55L145.03-35.55 149.99-35.55ZM151.6-20.65L151.6-34.56 175.86-34.56 175.86-25.38Q175.86-20.65 171.13-20.65L171.13-20.65 151.6-20.65ZM170.91-31.63L156.56-31.63 156.56-23.58 169.34-23.58Q170.91-23.58 170.91-25.15L170.91-25.15 170.91-31.63ZM167.35-12.55Q168.66-9.67 171.56-6.52 174.47-3.38 177.93-1.21L177.93-1.21 177.93 1.71Q176.94 1.75 174.76 0.61 172.57-0.54 170.06-2.54 167.53-4.54 165.6-6.93L165.6-6.93 165.6 4Q165.6 4.27 165.4 4.48 165.19 4.68 164.93 4.68L164.93 4.68 160.65 4.68 160.65-6.79Q158.67-4.46 156.19-2.48 153.72-0.49 151.54 0.63 149.35 1.75 148.41 1.71L148.41 1.71 148.41-1.21Q151.88-3.38 154.78-6.52 157.68-9.67 158.99-12.55L158.99-12.55 148.86-12.55 148.86-15.48 160.65-15.48 160.65-19.3 165.6-19.3 165.6-15.48 177.8-15.48 177.8-13.23Q177.8-12.96 177.59-12.76 177.39-12.55 177.12-12.55L177.12-12.55 167.35-12.55Z" transform="translate(-2.069999933242798, 36.22999954223633)"></path></g> <!----> <!----> <!----> <!----> <!----> <!----> <!----></g></g> <g data-gra="path-slogan" fill-rule="" class="tp-slogan iconsvg-slogansvg" fill="#c4d02e" transform="translate(5.000007629394531,46.90999984741211)"><rect x="0" height="1" y="3.9750003814697266" width="30.404991149902344"></rect> <rect height="1" y="3.9750003814697266" width="30.404991149902344" x="135.45499420166016"></rect> <g transform="translate(33.404991149902344,0)"><g transform="scale(1)"><path d="M4.13-7.64L2.06-7.64L2.06-4.97L4.13-4.97Q5.95-4.92 5.91-6.38L5.91-6.38Q5.91-7.64 4.13-7.64L4.13-7.64ZM4.59 0L0.89 0L0.89-8.58L4.69-8.58Q6.98-8.48 7.08-6.42L7.08-6.42Q7.08-5.16 5.95-4.64L5.95-4.64Q7.55-4.08 7.55-2.53L7.55-2.53Q7.41-0.09 4.59 0L4.59 0ZM4.31-3.98L2.06-3.98L2.06-0.98L4.55-0.98Q6.33-1.03 6.38-2.53L6.38-2.53Q6.38-3.98 4.31-3.98L4.31-3.98ZM10.17-1.03L15.33-1.03L15.33 0L9 0L9-8.58L15.23-8.58L15.23-7.59L10.17-7.59L10.17-4.92L14.86-4.92L14.86-3.89L10.17-3.89L10.17-1.03ZM17.02-8.58L18.19-8.58L18.19 0L17.02 0L17.02-8.58ZM19.45-1.92L19.45-2.77L20.53-2.77L20.53-2.16Q20.53-0.75 21.84-0.75L21.84-0.75Q23.20-0.75 23.20-2.25L23.20-2.25L23.20-8.58L24.38-8.58L24.38-2.30Q24.33 0.09 21.89 0.14L21.89 0.14Q19.59 0.09 19.45-1.92L19.45-1.92ZM26.34-8.58L27.52-8.58L27.52 0L26.34 0L26.34-8.58ZM30.89-8.58L35.20-1.64L35.20-8.58L36.33-8.58L36.33 0L35.02 0L30.66-6.94L30.61-6.94L30.61 0L29.48 0L29.48-8.58L30.89-8.58ZM44.53-3.61L41.91-3.61L41.91-4.59L45.66-4.59L45.66 0L44.91 0L44.63-1.08Q43.64 0.09 41.81 0.14L41.81 0.14Q40.08 0.14 39.14-0.75L39.14-0.75Q37.73-2.06 37.78-4.36L37.78-4.36Q38.11-8.63 41.86-8.81L41.86-8.81Q45.05-8.63 45.52-6L45.52-6L44.39-6Q43.92-7.78 41.81-7.83L41.81-7.83Q39.14-7.64 39-4.31L39-4.31Q39-0.75 41.86-0.75L41.86-0.75Q42.89-0.75 43.64-1.31L43.64-1.31Q44.58-2.06 44.53-3.61L44.53-3.61ZM57.70-8.58L54.47-3.47L54.47 0L53.30 0L53.30-3.47L50.06-8.58L51.42-8.58L53.86-4.45L56.34-8.58L57.70-8.58ZM64.41 0L63.56-2.48L60.09-2.48L59.20 0L58.03 0L61.27-8.58L62.58-8.58L65.67 0L64.41 0ZM61.83-7.31L60.47-3.52L63.14-3.52L61.88-7.31L61.83-7.31ZM73.50-4.27L73.50-4.27Q73.31-7.64 70.50-7.83L70.50-7.83Q67.64-7.69 67.50-4.27L67.50-4.27Q67.64-0.94 70.50-0.80L70.50-0.80Q73.31-0.98 73.50-4.27ZM74.67-4.27L74.67-4.27Q74.39 0 70.50 0.14L70.50 0.14Q66.56 0 66.28-4.27L66.28-4.27Q66.52-8.72 70.50-8.81L70.50-8.81Q74.39-8.67 74.67-4.27ZM79.27-7.64L77.20-7.64L77.20-4.97L79.27-4.97Q81.09-4.92 81.05-6.38L81.05-6.38Q81.05-7.64 79.27-7.64L79.27-7.64ZM79.73 0L76.03 0L76.03-8.58L79.83-8.58Q82.13-8.48 82.22-6.42L82.22-6.42Q82.22-5.16 81.09-4.64L81.09-4.64Q82.69-4.08 82.69-2.53L82.69-2.53Q82.55-0.09 79.73 0L79.73 0ZM79.45-3.98L77.20-3.98L77.20-0.98L79.69-0.98Q81.47-1.03 81.52-2.53L81.52-2.53Q81.52-3.98 79.45-3.98L79.45-3.98ZM89.67 0L88.83-2.48L85.36-2.48L84.47 0L83.30 0L86.53-8.58L87.84-8.58L90.94 0L89.67 0ZM87.09-7.31L85.73-3.52L88.41-3.52L87.14-7.31L87.09-7.31ZM98.77-4.27L98.77-4.27Q98.58-7.64 95.77-7.83L95.77-7.83Q92.91-7.69 92.77-4.27L92.77-4.27Q92.91-0.94 95.77-0.80L95.77-0.80Q98.58-0.98 98.77-4.27ZM99.94-4.27L99.94-4.27Q99.66 0 95.77 0.14L95.77 0.14Q91.83 0 91.55-4.27L91.55-4.27Q91.78-8.72 95.77-8.81L95.77-8.81Q99.66-8.67 99.94-4.27Z" transform="translate(-0.890625, 8.8125)"></path></g></g></g></g></g><defs v-gra="od"></defs></svg>